# xmcd CD database file
#
# Track frame offsets:
#	182
#	24377
#	56780
#	73535
#	95435
#	121322
#	148367
#	173575
#	190940
#	216390
#	244360
#
# Disc length: 3665 seconds
#
# Revision: 1
# Processed by: cddbd v1.5.1PL2 Copyright (c) Steve Scherf et al.
# Submitted via: CDex 1.51
#
DISCID=a70e4f0b
DTITLE=Nino De Rose - Blue Mood - Blue Mood
DYEAR=1993
DGENRE=Jazz
TTITLE0=Terra Innamorata
TTITLE1=Roma d'ottobre
TTITLE2=Another pop
TTITLE3=Collage blues
TTITLE4=Chi Vuole Innamorarsi Invano
TTITLE5=Ti Vivi Nella Mente Mia
TTITLE6=Waiting for Francesca
TTITLE7=Nemmeno un canto saprà
TTITLE8=Jazz Singer's Blues
TTITLE9=Sola
TTITLE10=Blue Mambo
EXTD=YEAR: 1993
EXTT0=
EXTT1=
EXTT2=
EXTT3=
EXTT4=
EXTT5=
EXTT6=
EXTT7=
EXTT8=
EXTT9=
EXTT10=
PLAYORDER=
